<svg width="25" height="25" viewBox="0 0 25 25" fill="none" xmlns="http://www.w3.org/2000/svg">
<path d="M22.1023 0.497175C22.7652 -0.165717 23.84 -0.165734 24.5029 0.497175C25.1657 1.16007 25.1657 2.23485 24.5029 2.89774L14.9005 12.5001L24.5029 22.1023C25.1657 22.7652 25.1657 23.84 24.5029 24.5029C23.84 25.1657 22.7652 25.1657 22.1023 24.5029L12.4999 14.9007L2.89776 24.5029C2.88739 24.5132 2.87694 24.5234 2.86638 24.5334C2.20136 25.1655 1.14972 25.1554 0.497182 24.5029C1.26977e-05 24.0057 -0.124293 23.2768 0.1243 22.6638C0.207153 22.4595 0.331459 22.268 0.497182 22.1023L10.0994 12.5001L0.497182 2.89783C-0.165727 2.23493 -0.165727 1.16015 0.497182 0.49726C1.16007 -0.165649 2.23486 -0.165649 2.89775 0.49726L12.4999 10.0994L22.1023 0.497175Z" fill="#858FA6"/>
</svg>
